# xmcd
#
# Track frame offsets: 
#        150
#        16898
#        29095
#        47277
#        60477
#        71948
#        86209
#        98798
#        111150
#        128560
#        141347
#        157254
#        170831
#        189686
#        206263
#        220016
#        230784
#        244483
#
# Disc length: 3445 seconds
#
# Revision: 0
# Processed by: cddbd v1.5.2PL0 Copyright (c) Steve Scherf et al.
# Submitted via: ExactAudioCopy v0.99pb5
#
DISCID=100d7312
DTITLE=黃鶯鶯 - 最初的黃鶯鶯
DYEAR=1900
DGENRE=Blues
TTITLE0=呢喃
TTITLE1=忘不掉
TTITLE2=你是我的夢
TTITLE3=我願
TTITLE4=雲河
TTITLE5=青色山脈
TTITLE6=我心深處
TTITLE7=夢裡的呼喚
TTITLE8=Feeling
TTITLE9=露珠兒
TTITLE10=愛的淚\珠
TTITLE11=明月千里寄相思
TTITLE12=睡蓮
TTITLE13=春風吻上我的臉
TTITLE14=忘了我是誰
TTITLE15=問白雲
TTITLE16=愛像一陣春風
TTITLE17=今夕是何夕
EXTD=
EXTT0=
EXTT1=
EXTT2=
EXTT3=
EXTT4=
EXTT5=
EXTT6=
EXTT7=
EXTT8=
EXTT9=
EXTT10=
EXTT11=
EXTT12=
EXTT13=
EXTT14=
EXTT15=
EXTT16=
EXTT17=
PLAYORDER=
